/* XPM */
static const char * five_xpm[] = {
"15 15 2 1",
" 	c #000000",
".	c #FFFFFE",
" ............  ",
" ............  ",
" ............  ",
" ...           ",
" ...           ",
" ...           ",
" .........     ",
" .........     ",
" .........     ",
"          ...  ",
"          ...  ",
"          ...  ",
" .........     ",
" .........     ",
" .........     "};
