/* XPM */
static const char * zero_xpm[] = {
"15 15 2 1",
" 	c #000000",
".	c #FFFFFE",
"    ......     ",
"    ......     ",
"    ......     ",
" ...      ...  ",
" ...      ...  ",
" ...      ...  ",
" ...      ...  ",
" ...      ...  ",
" ...      ...  ",
" ...      ...  ",
" ...      ...  ",
" ...      ...  ",
"    ......     ",
"    ......     ",
"    ......     "};
