/* XPM */
static const char * rank_xpm[] = {
/* columns rows colors chars-per-pixel */
"131 45 67 1 ",
"  c None",
". c #FB6A1F",
"X c #FB6B1F",
"o c #FB6D1E",
"O c #FB6C1F",
"+ c #FB6D1F",
"@ c #FB6F1E",
"# c #FC771B",
"$ c #FC711D",
"% c #FC721D",
"& c #FC731D",
"* c #FC701E",
"= c #FC741C",
"- c #FC751C",
"; c #FC781B",
": c #FC791B",
"> c #FC7A1A",
", c #FC7B1A",
"< c #FC7E19",
"1 c #FC7F19",
"2 c #FC7C1A",
"3 c #FB6222",
"4 c #FB6322",
"5 c #FB6421",
"6 c #FB6720",
"7 c #FB6621",
"8 c #FB6820",
"9 c #FB6920",
"0 c #FD9E0F",
"q c #FC8417",
"w c #FC8517",
"e c #FC8716",
"r c #FC8617",
"t c #FC8A15",
"y c #FC8916",
"u c #FC8A16",
"i c #FD8F14",
"p c #FC8118",
"a c #FC8019",
"s c #FC8218",
"d c #FC8318",
"f c #FD9711",
"g c #FD9412",
"h c #FD9612",
"j c #FD9014",
"k c #FD9911",
"l c #FDA50D",
"z c #FEAA0B",
"x c #FEAC0B",
"c c #FEAE0A",
"v c #FEA80C",
"b c #FEB607",
"n c #FEBF05",
"m c #FEB308",
"M c #FEB209",
"N c #FEB508",
"B c #FFC403",
"V c #FFC503",
"C c #FFC602",
"Z c #FFC702",
"A c #FFC104",
"S c #FFC304",
"D c #FFCB01",
"F c #FFC802",
"G c #FFCD00",
"H c #FFCC01",
"J c #FFCE00",
/* pixels */
"                                                                                                    a5555544                       ",
"                                                                                                    2bFSCCC44                      ",
"                                                                                                    2bJJJJF444                     ",
"                                                                                                    aNJJJJF4444                    ",
"                                                                                                    2bJJJJJ4444                    ",
"                                                                                                    abJJJJJ4344                    ",
"                                                                                                    2bJJJJF3334                    ",
"                                                                                                    abJJJJF3334         a4444444   ",
"                                                                                                    abJJJJJ4333         2bCCCCC43  ",
"                                                                                                    2bJJJJF4333         abJJJJF433 ",
" 4444444   44444445432       y44444444444444444444445=           444444445444444545544444           abJJJJJ4434         2bJJJJJ4333",
" iCCCCCq.  iCCCCCCCCM=3      qxCCCCCCCCCCCCCCCCCCCCCS94          4CCCCCCSFCCCCCCFFSSCCCC=5          2bJJJJF4444         abJJJJF4333",
" iJJJJJq.4#iJJJJJJJJM#33     qxJJJJJJJJJJJJJJJJJJJJJn$33         4JJJJJJJJJJJJJJJJJJJJJJ=94         2bJJJJF5444         2bJJJJJ4333",
" iJJJJJqjijiJJJJJJJJNqija    qxJJJJJJJJJJJJJJJJJJJJJSo344        4JJJJJJJJJJJJJJJJJJJJJJ$544        abJJJJF4444   ffffffq000lkk4333",
" iJJJJJMvvvNJJJJJJJJClvv44   qxJJJJJJJJJJJJJJJJJJJJJn$444        4JJJJJJJJJJJJJJJJJJJJJJ$544        2bJJJJJ4433   yvlzzly$o$$$$$334",
" iJJJJJJJJJJJJJJJJJJJJJF445  qxJJJJJJJJJJJJJJJJJJJJJno444        4JJJJJJJJJJJJJJJJJJJJJJ=434        abJJJJJ4433   yJJJJJiO444444444",
" iJJJJJJJJJSSSSSSSSSSFJJ4433 dxSSSSSSSSSSSSSSSSSSSSSS&ddr        4JJJJJFSSSSSSSSSSSSSSSS=qqrl       abJJJJJ4444   yJJJJJy.433444444",
" iJJJJJJJJM......OO..jJF4433 2O....................99O%%9%%9=    4JJJJJv................OO%OO%O4    2bJJJJF4344   yJJJJJyO44       ",
" iJJJJJJJJm=44333344OjJJ4333  44334444433444334444445,JJJJJk$4   4JJJJJz=333444344333444OSJJJJF45   abJJJJF4334   iJJJJJyO44       ",
" iJJJJJJJJm$44443444OiJF3333   4334444433444333444449:JJJJJk*44  4JJJJJz=333444344333444OSJJJJC444  2bJJJJF3334   yJJJJJtO44       ",
" iJJJJJy444#33343344O4443333    444494444444444444445:JJJJJk*44  4JJJJJz=433444444443444$SJJJJC4444 2bJJJJJ45444444444444.33       ",
" iJJJJJd.444333       544334        4CCCCSCCCCCCCCCCFFJJJJJk$34  4JJJJJz=433            onJJJJC4444 abJJJJJCCCCCCN=555444334       ",
" iJJJJJd.344434        44344        4JJJJJJJJJJJJJJJJJJJJJJk$34  4JJJJJz=444            $SJJJJC4444 2bJJJJJJJJJJJN=444434444       ",
" iJJJJJd.333444         3344        4JJJJJJJJJJJJJJJJJJJJJJk944  4JJJJJz$444            oSJJJJC4444 2NJJJJJJJJJJJN=544333444       ",
" iJJJJJq.33                         4JJJJJJJJJJJJJJJJJJJJJJk$54  4JJJJJz$443            $SJJJJC4334 2bJJJJJJJJJJJb$444             ",
" iJJJJJq.43                         4JJJJJJJJJJJJJJJJJJJJJJk*44  4JJJJJz#433            oSJJJJC4334 2bJJJJJJJJJJJb=444             ",
" iJJJJJq.44                         4SSSSSSSSSSSSSSSSSJJJJJk*44  4JJJJJz$333            onJJJJC4333 2bJJJJJSSSSSSb$444             ",
" iJJJJJq.44                  q4444444...O............,JJJJJk*44  4JJJJJz=333            $SJJJJC4333 abJJJJJ4......4444454          ",
" iJJJJJq.44                  qxFCCCC34334444433333449,JJJJJk944  4JJJJJz=433            $SJJJJC4444 2bJJJJJ433444OyCFCCCyO         ",
" iJJJJJq.44                  qxJJJJJ34334433443334445,JJJJJk$44  4JJJJJz=433            onJJJJC4444 abJJJJJ433444.yJJJJJy.4        ",
" iJJJJJq945                  qxJJJJJ34444433444433445:JJJJJk$44  4JJJJJz=333            $SJJJJS4334 2bJJJJF333445OyJJJJJyO44       ",
" iJJJJJq945                  qxJJJJF3444             :JJJJJk944  4JJJJJz=433            $SJJJJC4334 abJJJJJ3334   yJJJJJtO44       ",
" iJJJJJq.44                  qxJJJJJ3533             :JJJJJk*44  4JJJJJz=333            oSJJJJC4334 2bJJJJJ4334   yJJJJJyO33       ",
" iJJJJJq.44                  alk00003jjjfffkfffffffff:JJJJJk$34  4JJJJJz=333            $nJJJJC4334 2bJJJJJ4334   y00000yjjjfffy   ",
" iJJJJJq.44                   $$$$$$4lvvlvvvvvvvvvvvvxJJJJJk$34  4JJJJJz=333            oSJJJJC4333 2bJJJJJ4333   ;$$$$o2zzlvlv34  ",
" iJJJJJq.43                    444444FJJJJJJJJJJJJJJJJJJJJJk944  4JJJJJz=333            oSJJJJC4333 abJJJJJ4333    53334;bJJJJJ344 ",
" iJJJJJq.44                     44444CJJJJJJJJJJJJJJJJJJJJJk$44  4JJJJJz=333            $nJJJJC4444 2bJJJJJ4444     4444;bJJJJJ4333",
" iJJJJJq.44                         4CJJJJJJJJJJJJJJJJJJJJJk$44  4JJJJJz=333            $SJJJJC4444 abJJJJJ4344         2bJJJJF4333",
" iJJJJJq.44                         4FJJJJJJJJJJJJJJJJJJJJJko44  4JJJJJx=333            onJJJJC3334 2bJJJJF3334         abJJJJJ4333",
" iJJJJJq.34                         4CJJJJJJJJJJJJJJJJJJJJJk$44  4JJJJJv=333            $SJJJJC4334 abJJJJJ3334         2bJJJJF4333",
" 4444444.34                         444444444334353544335353o44  4444444=333            O5444444333 ;4444444333         ;5444444333",
"  54.444334                          54455444.44555555335553344   5455553333             5555544334  5555554333          5545554333",
"   43344333                           4444433343333344433333334    433443333              444443444   443344434           443344434",
"    3344333                            444333333333344433333334     34443333               44433444    43444444            43444444",
"                                                                                                                                   "
};
