/* XPM */
static const char * score_xpm[] = {
/* columns rows colors chars-per-pixel */
"157 38 67 1 ",
"  c None",
". c #FB6A1F",
"X c #FB6B1F",
"o c #FB6D1E",
"O c #FB6C1F",
"+ c #FB6D1F",
"@ c #FB6E1E",
"# c #FB6F1E",
"$ c #FC701D",
"% c #FC711D",
"& c #FC721D",
"* c #FC731D",
"= c #FC701E",
"- c #FC741C",
"; c #FC751C",
": c #FC781B",
"> c #FC791B",
", c #FC7A1A",
"< c #FC7B1A",
"1 c #FC7A1B",
"2 c #FC7E19",
"3 c #FC7F19",
"4 c #FC7D1A",
"5 c #FB6222",
"6 c #FB6322",
"7 c #FB6421",
"8 c #FB6521",
"9 c #FB6720",
"0 c #FB6621",
"q c #FB6820",
"w c #FB6920",
"e c #FB6A20",
"r c #FD9E0F",
"t c #FC8417",
"y c #FC8517",
"u c #FC8716",
"i c #FC8A15",
"p c #FC8816",
"a c #FD8E14",
"s c #FD8F14",
"d c #FC8118",
"f c #FC8019",
"g c #FD9213",
"h c #FD9313",
"j c #FD9711",
"k c #FD9014",
"l c #FD9911",
"z c #FD9B10",
"x c #FDA00F",
"c c #FEA60D",
"v c #FEAA0B",
"b c #FEAC0B",
"n c #FEA80C",
"m c #FEB906",
"M c #FEB807",
"N c #FEB907",
"B c #FEBF05",
"V c #FFC403",
"C c #FFC602",
"Z c #FFC702",
"A c #FFC104",
"S c #FFC304",
"D c #FFCA01",
"F c #FFCB01",
"G c #FFC802",
"H c #FFCC01",
"J c #FFCE00",
/* pixels */
"       277777755555577677                                                                                                                                    ",
"       <mVVVZZZZZZZZGVVV66                                                                                                                                   ",
"       <mJJJJJJJJJJJJJJG666                                                                                                                                  ",
"       <mJJJJJJJJJJJJJJJ6655        e6666666777756667*                  7756666667776e           6666666<  66666666666              p77666666666666666666    ",
"       <mJJJJJJJJJJJJJJG5555        7VVVVVGVGVGVZZZZA=5                ylZZZZZZZGVGVV56          6ZZVVGm*7 6ZZZZVVGVG66             ycVVVGVGVGVGGVGVVGVGx*   ",
"       <mJJJJJJJJJJJJJJJ5556        6GJJJJJJJJJJJJJJB=55               plJJJJJJJJJJJV665         6GJJJJm$666GJJJJJJJJ666            pnJJJJJJJJJJJJJJJJJJx$7  ",
" jjjjjj2xxrrrrrrzxzxzxrx5566        6VJJJJJJJJJJJJJJB=555              plJJJJJJJJJJJV6656        6JJJJJMdkk6JJJJJJJJG6kky           pcJJJJJJJJJJJJJJJJJJx$66 ",
" snnnnny$$$$$$$@$$*$*$$$@566        7GJJJJJJJJJJJJJJB=555              ylJJJJJJJJJJJV6666        6JJJJJVnnnnJJJJJJJJJnnnpo          ycJJJJJJJJJJJJJJJJJJr@666",
" sJJJJJt.6666665556666665555        6GJJJJJJJJJJJJJJB$666              yrJJJJJJJJJJJV6666        6GJJJJJJJJJJJJJJJJJJJJJs.5         pcJJJJJJJJJJJJJJJJJJx-665",
" sJJJJJt.6556666566656665555        6AZAAAZAAZAAAAZAB$665               zAZAAAAZAAZAA6666        6JJJJJJJJJZAAAZAZAAAAJJio66        ycZAAZAAZAAAAZAJJJJJx=665",
" sJJJJJt.65                  p5677776e..ee..ee..eeeee6777766     6777777o...eeee....e66766762    6JJJJJJJJJ5...eee...6JJie66  6677776oe.ee..eee.ee=JJJJJx=665",
" sJJJJJt.66                   bVVGVV6666676666556555e>VVVVVl=    VVGVVGn*6667557566576VVVVGn*6   6GJJJJJJJJ55665666666JJio66  =VVGVVz*66676666666eoJJJJJxo565",
" sJJJJJt.66                  ybJJJJJ55556665666566667>JJJJJl$7   6JJJJJb$5556666666566JJJJJn-55  6GJJJJJJJJ66666666566JJp.66  oJJJJJx$676666666667=JJJJJx=655",
" 66666666677667766           ybJJJJJ55566655665566667>JJJJJl=55  7JJJJJn$5566655665566JJJJJb-555 6JJJJJM55665666665566667.56  =JJJJJx6676666776666oJJJJJx-665",
"  76766:MVVVVVGVVt.           bJJJJJ5566             >JJJJJl=55  JJJJJJb*766         6JJJJJn-555 6GJJJJM*777555       667666  =JJJJJJVGVVVVVGVVVVGGJJJJJx-665",
"   6666:MJJJJJJJJt.6         ybJJJJG5566             <JJJJJl=55  6JJJJJn*666         6JJJJJb-555 6JJJJJM*666555        66666  oJJJJJJJJJJJJJJJJJJJJJJJJJx=665",
"    666>MJJJJJJJJy.66        ybJJJJJ6655             <AAAAAle66  6JJJJJn-555         6JJJJJb:655 5JJJJJM$555666         6666  oJJJJJJJJJJJJJJJJJJGxzzxzxz$555",
"       <MJJJJJJJJy.66        ybJJJJJ6655             eo.oe@e@66  6JJJJJn-555         6JJJJJn$655 5JJJJJM-556                  =JJJJJJJJJJJJJJJJJJZe$$*$$*e555",
"       <mJJJJJJJGt.66        ybJJJJJ6555              666655556  6JJJJJn-555         6JJJJJb-665 5GJJJJM-666                  oJJJJJJJJJJJJJJJJJJZe7775565555",
"       >mAZAAZAAVt.66        ybJJJJJ6555               66655556  6JJJJJb-555         6JJJJJn-665 5JJJJJM-666                  =JJJJJGVZAAAZAZAAAAAe5555555555",
"       <eeoe.....o6666776    ybJJJJJ5555             6676776=66  6JJJJJn-665         6JJJJJb$555 5JJJJJM-655                  =JJJJJr...eeeeeoeeee$755       ",
"        666655666<mVVVVV66   ybJJJJJ5555             >VVVVVl=    6JJJJJb-655         6JJJJJn-555 5GJJJJm-655                  oJJJJJx$6567556755755555       ",
"         66655666:MJJJJJ666  ybJJJJJ5555             >JJJJJl$6   6JJJJJn-666         6JJJJJn-655 5JJJJGM-555                  =JJJJJx$5555556665565555       ",
"          5656665:MJJJJJ6666 ybJJJJG5566             <JJJJJl$55  6JJJJJb$666         6JJJJJn-655 5JJJJJM-555                  =JJJJJx*6655556655575566665    ",
"                 <mJJJJJ5555 ybJJJJJ6666             >JJJJJl$65  6JJJJJb:666         5JJJJJn:665 5HJJJJM-555                  oJJJJJx$666         =GVGVGx$   ",
"                 2mJJJJG5555 ybJJJJJ6666             <JJJJJl@65  6JJJJJn$666         5JJJJJn$655 5HJJJJM-555                  =JJJJJx*666         =JJJJJx*6  ",
" jjjjjjjjjjjjjjjj2xrrrrr5555 dzrrrrr6aakjjjjjjljlljll<zrrrrl$65  6rrxrrrakakjjjjjjjjj5rrrxxr$655 5HJJJJM-555                  =rrrrrrkkkkljjjjjjljeJJJJJx*55 ",
" snnnnnnnnncnnnnny$$$$$@@555  *$$$$@6cnnnnnnnnnccncnc$$$$$$@665   $$$$$$rnnnnnncnnnnn5$@$$$$.556 5HJJJJM-555                  2=$$$@<cnnnnnnnnnnnnbJJJJJx$556",
" sJJJJJJJJJJJJJJJd.666556666   766656GJJJJJJJJJJJJJJA$666655666    6666:rGJJJJJJJJJJV75576666566 5HJJJJM-665                   66665<cJJJJJJJJJJJJJJJJJJx$655",
" sJJJJJJJJJJJJJJJy.666555666    66556GJJJJJJJJJJJJJJBo666655566     666*rJJJJJJJJJJJV65566665566 5HJJJJM-655                    6665<cJJJJJJJJJJJJJJJJJJx*655",
" sJJJJJJJJJJJJJJJt.66               6VJJJJJJJJJJJJJJB@666              2lJJJJJJJJJJJG6666        5HJJJJM-666                        2cJJJJJJJJJJJJJJJJJJx*555",
" sJJJJJJJJJJJJJJJt.66               6GJJJJJJJJJJJJJJB@566              yrJJJJJJJJJJJG6666        5HJJJJM$666                        ycJJJJJJJJJJJJJJJJJJx$555",
" sJJJJJJJJGJJJJJJt.65               6VJJJJJJJJJJGJJJB$555              pzJJJJJJJJJJJG5555        5JJJJJM*655                        pcJJJJJJJJJJJJJJJJJJx*655",
" 66666666655666666.66               66766666666655667o555               66666666666665555        5665566*555                        d56566666666666666666$555",
"  776666666.666766666                766767666676.6676666               77777777777777555         6777676555                         777777777777777777775555",
"   666666666666655666                 6666666666666666666                6555555555555555          555555555                          55555555555555555555555",
"    66666666666666666                  666666666666666666                 555555555555555           55555555                           5555555555555555555555",
"                                                                                                                                                             "
};
