/* XPM */
static const char * tetris_mouse_pointer_xpm[] = {
"30 30 16 1",
" 	c None",
".	c #000000",
"+	c #3C6705",
"@	c #2E5103",
"#	c #203B02",
"$	c #83D816",
"%	c #68AD0F",
"&	c #4C8109",
"*	c #59950C",
"=	c #467607",
"-	c #315604",
";	c #57930B",
">	c #325704",
",	c #2F5204",
"'	c #487908",
")	c #1E3702",
"                              ",
"                              ",
"                              ",
"                              ",
"                              ",
".++++++++@#++++++++#          ",
".$$$$$$$$%&$$$$$$$$&          ",
".$$$$$$$$%&$$$$$$$$&          ",
".$$$$$$$$%&$$$$$$$$&          ",
".$$$$$$$$%&$$$$$$$$&          ",
".$$$$$$$$%&$$$$$$$$&          ",
".$$$$$$$$%&$$$$$$$$&          ",
".$$$$$$$$%&$$$$$$$$&          ",
".$$$$$$$$%&$$$$$$$$&          ",
".********=-;;;;;;;;-......... ",
" .........>********,=********.",
"          &$$$$$$$$'%$$$$$$$$.",
"          &$$$$$$$$'%$$$$$$$$.",
"          &$$$$$$$$'%$$$$$$$$.",
"          &$$$$$$$$'%$$$$$$$$.",
"          &$$$$$$$$'%$$$$$$$$.",
"          &$$$$$$$$'%$$$$$$$$.",
"          &$$$$$$$$'%$$$$$$$$.",
"          &$$$$$$$$'%$$$$$$$$.",
"          #++++++++)@++++++++.",
"                              ",
"                              ",
"                              ",
"                              ",
"                              "};
