/* XPM */
static const char * txt_quit_selected_xpm[] = {
"300 50 14 1",
" 	c None",
".	c #EED811",
"+	c #EED910",
"@	c #EED810",
"#	c #EED80F",
"$	c #EDD810",
"%	c #EDD910",
"&	c #EED710",
"*	c #EFD910",
"=	c #EED711",
"-	c #EED90F",
";	c #EFD710",
">	c #EFD810",
",	c #EDD710",
"                                                                                                                                                                                                                                                                                                            ",
"                                                                                                                                                                                                                                                                                                            ",
"                                                                                                                                                                                                                                                                                                            ",
"                                                                                                                                                                                                                                                                                                            ",
"                                                                                                                                                                                                                                                                                                            ",
"                                                                                                                                                                                                                                                                                                            ",
"                                                                                                                                                                                                                                                                                                            ",
"                                                                                                                                                                                                                                                                                                            ",
"                                                                                                                                                                                                                                                                                                            ",
"                                                                                                                                                                                                                                                                                                            ",
"                                                                                                                                                                                                                                                                                                            ",
"                                                                                                                     .+@@#@@$                                                                                                                                                                               ",
"                                                                                                                  %@@@@@@@@@@@@                                     &@@@$                                                                                                                                   ",
"                                                                                                                 @@@@@@@@@@@@@@@@                                   &@@@$       @@@                                                                                                                         ",
"                                                                                                               .@@@@$$      $@@@@*                                  &@@@$       @@@                                                                                                                         ",
"                                                                                                              $@@@@+          @@@@@                                 &@@@$       @@@                                                                                                                         ",
"                                                                                                              @@@@             .@@@@                                            @@@                                                                                                                         ",
"                                                                                                             +@@@$              @@@@                                            @@@                                                                                                                         ",
"                                                                                                             @@@@                @@@@                                           @@@                                                                                                                         ",
"                                                                                                            #@@@                 @@@@      *@@@           @@@&       @@@     =@@@@@@@@@@@@@                                                                                                                 ",
"                                                                                                            @@@@                 $@@@$     *@@@           @@@&       @@@     =@@@@@@@@@@@@@                                                                                                                 ",
"                                                                                                            @@@-                  @@@@     *@@@           @@@&       @@@     =@@@@@@@@@@@@@                                                                                                                 ",
"                                                                                                            @@@&                  @@@#     *@@@           @@@&       @@@        @@@                                                                                                                         ",
"                                                                                                           +@@@                   @@@@     *@@@           @@@&       @@@        @@@                                                                                                                         ",
"                                                                                                           #@@@                   +@@@     *@@@           @@@&       @@@        @@@                                                                                                                         ",
"                                                                                                           #@@@                   @@@@     *@@@           @@@&       @@@        @@@                                                                                                                         ",
"                                                                                                           #@@@                   $@@@     *@@@           @@@&       @@@        @@@                                                                                                                         ",
"                                                                                                           -@@@                   +@@@     *@@@           @@@&       @@@        @@@                                                                                                                         ",
"                                                                                                           &@@@                   @@@@     *@@@           @@@&       @@@        @@@                                                                                                                         ",
"                                                                                                            @@@+                  @@@@     *@@@           @@@&       @@@        @@@                                                                                                                         ",
"                                                                                                            @@@-                  @@@=     *@@@           @@@&       @@@        @@@                                                                                                                         ",
"                                                                                                            @@@@                 ;@@@$     *@@@           @@@&       @@@        @@@                                                                                                                         ",
"                                                                                                            $@@@                 @@@@      .@@@           @@@&       @@@        @@@                                                                                                                         ",
"                                                                                                             @@@@                @@@-      $@@@           @@@&       @@@        @@@                                                                                                                         ",
"                                                                                                             >@@@$              @@@@        @@@           @@@&       @@@        @@@                                                                                                                         ",
"                                                                                                              @@@@             #@@@.        @@@&          @@@&       @@@        @@@>                                                                                                                        ",
"                                                                                                              #@@@@#          @@@@@         @@@@        =@@@@&       @@@        @@@@                                                                                                                        ",
"                                                                                                               #@@@@@$      $@@@@@          .@@@@     >@@@@@@&       @@@        &@@@@     @                                                                                                                 ",
"                                                                                                                 @@@@@@@@@@@@@@@.            @@@@@@@@@@@@ @@@&       @@@         @@@@@@@@@@                                                                                                                 ",
"                                                                                                                  #@@@@@@@@@@@&               #@@@@@@@@@  @@@&       @@@          @@@@@@@@@                                                                                                                 ",
"                                                                                                                     .@@@#@@@@                  ##@@@*    @@@&       @@@           ,=@@@#.                                                                                                                  ",
"                                                                                                                           @@@                                                                                                                                                                              ",
"                                                                                                                           @@@*                                                                                                                                                                             ",
"                                                                                                                           @@@>                                                                                                                                                                             ",
"                                                                                                                           @@@@                                                                                                                                                                             ",
"                                                                                                                            @@@@$    @@                                                                                                                                                                     ",
"                                                                                                                            $@@@@@@@@@.                                                                                                                                                                     ",
"                                                                                                                             -@@@@@@@@.                                                                                                                                                                     ",
"                                                                                                                               +&@@@@&                                                                                                                                                                      ",
"                                                                                                                                                                                                                                                                                                            "};
