/* XPM */
static const char * txt_leaderboard_xpm[] = {
"300 50 2 1",
" 	c None",
".	c #FFFFFF",
"                                                                                                                                                                                                                                                                                                            ",
"                                                                                                                                                                                                                                                                                                            ",
"                                                                                                                                                                                                                                                                                                            ",
"                                                                                                                                                                                                                                                                                                            ",
"                                                                                                                                                                                                                                                                                                            ",
"                                                                                                                                                                                                                                                                                                            ",
"                                                                                                                                                                                                                                                                                                            ",
"                                                                                                                                                                                                                                                                                                            ",
"                                                                                                                                                                                                                                                                                                            ",
"                                                                                                                                                                                                                                                                                                            ",
"                                                                                                                ....                                                ....                                                                                                    ....                            ",
"                                                                                                                ....                                                ....                                                                                                    ....                            ",
"                            ....                                                                                ....                                                ....                                                                                                    ....                            ",
"                            ....                                                                                ....                                                ....                                                                                                    ....                            ",
"                            ....                                                                                ....                                                ....                                                                                                    ....                            ",
"                            ....                                                                                ....                                                ....                                                                                                    ....                            ",
"                            ....                                                                                ....                                                ....                                                                                                    ....                            ",
"                            ....                                                                                ....                                                ....                                                                                                    ....                            ",
"                            ....                        ......               .........                 .......  ....             ......                             ....    .....                 .......               .........                                  .......  ....                            ",
"                            ....                     ...........          ..............             ...............          ...........          ....    .....    ....  .........             ...........          ..............          ....    .....       ...............                            ",
"                            ....                    ..............        ...............           ................         ..............        ....  .......    ................           .............         ...............         ....  .......      ................                            ",
"                            ....                   .....     .....        ....       .....         .....      ......        .....     .....        .... ........    .......     .....         .....     .....        ....       .....        .... ........     .....      ......                            ",
"                            ....                  ....         ....       ..          ....        .....         ....       ....         ....       .............    .....        .....       ....        .....       ..          ....        .............    .....         ....                            ",
"                            ....                  ...           ...                    ....       ....          ....       ...           ...       .......          ....          ....       ....         ....                    ....       .......          ....          ....                            ",
"                            ....                 ....           ....                   ....      ....           ....      ....           ....      .....            ....           ...      ....           ....                   ....       .....           ....           ....                            ",
"                            ....                 ...            ....                   ....      ....           ....      ...            ....      ....             ....           ....     ....           ....                   ....       ....            ....           ....                            ",
"                            ....                 ...             ...             ..........      ...            ....      ...             ...      ....             ....           ....     ...            ....             ..........       ....            ...            ....                            ",
"                            ....                ....................         ..............      ...            ....     ....................      ....             ....           ....    ....             ...         ..............       ....            ...            ....                            ",
"                            ....                ....................       ................     ....            ....     ....................      ....             ....           ....    ....             ...       ................       ....           ....            ....                            ",
"                            ....                ....................      ........     ....     ....            ....     ....................      ....             ....           ....    ....             ...      ........     ....       ....           ....            ....                            ",
"                            ....                ....                     .....         ....     ....            ....     ....                      ....             ....           ....    ....             ...     .....         ....       ....           ....            ....                            ",
"                            ....                ....                     ....          ....     ....            ....     ....                      ....             ....           ....    ....             ...     ....          ....       ....           ....            ....                            ",
"                            ....                 ...                    ....           ....      ...            ....      ...                      ....             ....           ....     ...            ....    ....           ....       ....            ...            ....                            ",
"                            ....                 ....                   ....           ....      ....           ....      ....                     ....             ....           ...      ....           ....    ....           ....       ....            ....           ....                            ",
"                            ....                 ....                   ....           ....      ....           ....      ....                     ....             ....          ....      ....           ....    ....           ....       ....            ....           ....                            ",
"                            ....                  ....             .    ....           ....      ....           ....       ....             .      ....             ....          ....       ....         ....     ....           ....       ....            ....           ....                            ",
"                            ....                  .....          ...     ....        ......       ....        ......       .....          ...      ....             ....         ....        ....        .....      ....        ......       ....             ....        ......                            ",
"                            ....                   ......      .....     .....     ........       .....     ........        ......      .....      ....             ......     ......         .....     .....       .....     ........       ....             .....     ........                            ",
"                            ...................     ................      .................        .................         ................      ....             ................           .............         .................       ....              .................                            ",
"                            ...................      ..............        ..........  ....         ..........  ....          ..............       ....             ..............              ...........           ..........  ....       ....               ..........  ....                            ",
"                            ...................         ........             ......    ....           ......    ....             ........          ....             ...   ......                  .......               ......    ....       ....                 ......    ....                            ",
"                                                                                                                                                                                                                                                                                                            ",
"                                                                                                                                                                                                                                                                                                            ",
"                                                                                                                                                                                                                                                                                                            ",
"                                                                                                                                                                                                                                                                                                            ",
"                                                                                                                                                                                                                                                                                                            ",
"                                                                                                                                                                                                                                                                                                            ",
"                                                                                                                                                                                                                                                                                                            ",
"                                                                                                                                                                                                                                                                                                            ",
"                                                                                                                                                                                                                                                                                                            "};
