/* XPM */
static const char * txt_instructions_selected_xpm[] = {
"300 50 16 1",
" 	c None",
".	c #EED810",
"+	c #EED710",
"@	c #EDD810",
"#	c #EED80F",
"$	c #EFD810",
"%	c #EDD710",
"&	c #EFD710",
"*	c #EED90F",
"=	c #EED811",
"-	c #EED910",
";	c #EFD811",
">	c #EED70F",
",	c #EED711",
"'	c #EFD910",
")	c #EDD910",
"                                                                                                                                                                                                                                                                                                            ",
"                                                                                                                                                                                                                                                                                                            ",
"                                                                                                                                                                                                                                                                                                            ",
"                                                                                                                                                                                                                                                                                                            ",
"                                                                                                                                                                                                                                                                                                            ",
"                                                                                                                                                                                                                                                                                                            ",
"                                                                                                                                                                                                                                                                                                            ",
"                                                                                                                                                                                                                                                                                                            ",
"                                                                                                                                                                                                                                                                                                            ",
"                                                                                                                                                                                                                                                                                                            ",
"                                                                                                                                                                                                                                                                                                            ",
"                                                                                                                                                                                                                                                                                                            ",
"                                    ...........                                                                                                                                                   +...@                                                                                                     ",
"                                    ...........                                                     ...                                                                            ...            +...@                                                                                                     ",
"                                    ...........                                                     ...                                                                            ...            +...@                                                                                                     ",
"                                       #...                                                         ...                                                                            ...            +...@                                                                                                     ",
"                                       #...                                                         ...                                                                            ...                                                                                                                      ",
"                                       #...                                                         ...                                                                            ...                                                                                                                      ",
"                                       #...                   #...$%               &...#*#          ...                                                            =$...-=         ...                             ;$.#.@                     #...$%               &...#*#                                  ",
"                                       #...           ...   .........           >...........$    ,.............     ...     .....   '...           ...+          +..........#   ,.............     ...           ..........>          ...   .........           >...........$                               ",
"                                       #...           ... *...........         ..............    ,.............     ...   .......   '...           ...+         ..............  ,.............     ...         =............+         ... *...........         ..............                               ",
"                                       #...           .......     #....       $...$      +...    ,.............     ... $........   '...           ...+        ....=     #....  ,.............     ...         ....&     '....        .......     #....       $...$      +...                               ",
"                                       #...           ....@        ....       ...$         $.       ...             .............   '...           ...+       ....         =..     ...             ...        ....        ,...        ....@        ....       ...$         $.                               ",
"                                       #...           ...=          ...*     $...           @       ...             ......-         '...           ...+      *...            .     ...             ...       #...          ....       ...=          ...*     $...           @                               ",
"                                       #...           ...           ...#     =...                   ...             ....,           '...           ...+      ...+                  ...             ...       ...#           ...       ...           ...#     =...                                           ",
"                                       #...           ...           #...     ....                   ...             ...+            '...           ...+      ...                   ...             ...       ...            ....      ...           #...     ....                                           ",
"                                       #...           ...           #..@      ....                  ...             ...             '...           ...+     *...                   ...             ...      ....            ....      ...           #..@      ....                                          ",
"                                       #...           ...           #...      .....'#               ...             ...             '...           ...+     ....                   ...             ...      $...            -...      ...           #...      .....'#                                       ",
"                                       #...           ...           ....       ..........&          ...             ...             '...           ...+     ....                   ...             ...      -..'            ....      ...           ....       ..........&                                  ",
"                                       #...           ...           ....        #..........+        ...             ...             '...           ...+     ....                   ...             ...      '...            #...      ...           ....        #..........+                                ",
"                                       #...           ...           ....          -..........       ...             ...             '...           ...+     ...@                   ...             ...      -..'            ....      ...           ....          -..........                               ",
"                                       #...           ...           ....               %.....@      ...             ...             '...           ...+     ....                   ...             ...      $...            -...      ...           ....               %.....@                              ",
"                                       #...           ...           ....                 >....      ...             ...             =...           ...+     ....                   ...             ...      *...            ....      ...           ....                 >....                              ",
"                                       #...           ...           ....                  *...      ...             ...             @...           ...+      ...                   ...             ...       ...            ....      ...           ....                  *...                              ",
"                                       #...           ...           ....                  #...      ...             ...              ...           ...+      ....                  ...             ...       ...+           ...       ...           ....                  #...                              ",
"                                       #...           ...           ....     .            ....      ...$            ...              ...+          ...+      ....            )     ...$            ...       #...          ....       ...           ....     .            ....                              ",
"                                       #...           ...           ....     =.)          ...#      ....            ...              ....        ,....+       ....         >..     ....            ...        ....        +...        ...           ....     =.)          ...#                              ",
"                                       #...           ...           ....     =...&      =....       +....     .     ...              =....     $......+       @....-     -....     +....     .     ...        %....+     ....+        ...           ....     =...&      =....                               ",
"                                    ...........       ...           ....     =..............         ..........     ...               ............ ...+        @..............      ..........     ...         @.............         ...           ....     =..............                                ",
"                                    ...........       ...           ....      &............           .........     ...                #.........  ...+          ...........=        .........     ...           #.........=          ...           ....      &............                                 ",
"                                    ...........       ...           ....         ).@...,+              %,...#=      ...                  ##...'    ...+            #.'...$            %,...#=      ...             $-.#..             ...           ....         ).@...,+                                   ",
"                                                                                                                                                                                                                                                                                                            ",
"                                                                                                                                                                                                                                                                                                            ",
"                                                                                                                                                                                                                                                                                                            ",
"                                                                                                                                                                                                                                                                                                            ",
"                                                                                                                                                                                                                                                                                                            ",
"                                                                                                                                                                                                                                                                                                            ",
"                                                                                                                                                                                                                                                                                                            ",
"                                                                                                                                                                                                                                                                                                            ",
"                                                                                                                                                                                                                                                                                                            "};
