/* XPM */
static const char * txt_leaderboard_selected_xpm[] = {
"300 50 15 1",
" 	c None",
".	c #EED810",
"+	c #EDD810",
"@	c #EED811",
"#	c #EED710",
"$	c #EFD810",
"%	c #EFD910",
"&	c #EDD710",
"*	c #EFD710",
"=	c #EED70F",
"-	c #EED80F",
";	c #EED910",
">	c #EED711",
",	c #EED90F",
"'	c #EDD910",
"                                                                                                                                                                                                                                                                                                            ",
"                                                                                                                                                                                                                                                                                                            ",
"                                                                                                                                                                                                                                                                                                            ",
"                                                                                                                                                                                                                                                                                                            ",
"                                                                                                                                                                                                                                                                                                            ",
"                                                                                                                                                                                                                                                                                                            ",
"                                                                                                                                                                                                                                                                                                            ",
"                                                                                                                                                                                                                                                                                                            ",
"                                                                                                                                                                                                                                                                                                            ",
"                                                                                                                                                                                                                                                                                                            ",
"                                                                                                                ...+                                                ...@                                                                                                    ...+                            ",
"                                                                                                                ...+                                                ...@                                                                                                    ...+                            ",
"                            @...                                                                                ...+                                                ...@                                                                                                    ...+                            ",
"                            @...                                                                                ...+                                                ...@                                                                                                    ...+                            ",
"                            @...                                                                                ...+                                                ...@                                                                                                    ...+                            ",
"                            @...                                                                                ...+                                                ...@                                                                                                    ...+                            ",
"                            @...                                                                                ...+                                                ...@                                                                                                    ...+                            ",
"                            @...                                                                                ...+                                                ...@                                                                                                    ...+                            ",
"                            @...                        +....#               .$%....+@                 ##..+.&  ...+             +....#                             ...@    *...$                 @....$=               .$%....+@                                  ##..+.&  ...+                            ",
"                            @...                     -..........          -............+             #.............+          -..........          ...@    +;..+    ...@  .........             +.........$          -............+          ...@    +;..+       #.............+                            ",
"                            @...                    ;............;        >.............%           %..............+         ;............;        ...@  $......    ...@$...........           .............         >.............%         ...@  $......      %..............+                            ",
"                            @...                   -...-     +....        >..@       -...$         .....      @....+        -...-     +....        ...@ ........    ......$     .....         ....&     ....+        >..@       -...$        ...@ ........     .....      @....+                            ",
"                            @...                  +...         ....       #&          ....        ....$         ...+       +...         ....       .............    .....        ,...@       ....        -...-       #&          ....        .............    ....$         ...+                            ",
"                            @...                  ...           ...                    ...+       ...+          ...+       ...           ...       ......#          ...*          ;...       ...&         ....                    ...+       ......#          ...+          ...+                            ",
"                            @...                 -...           -...                   +..-      ....           ...+      -...           -...      .....            ...@           ...      ....           ...=                   +..-       .....           ....           ...+                            ",
"                            @...                 ...            @..+                   #..$      ....           ...+      ...            @..+      ....             ...@           ...&     ...$           -...                   #..$       ....            ....           ...+                            ",
"                            @...                 ...             ...             +=.;......      ...            ...+      ...             ...      ...@             ...@           ....     ...            $...             +=.;......       ...@            ...            ...+                            ",
"                            @...                -...................         -.............      ...            ...+     -...................      ...@             ...@           #...    @...             ...         -.............       ...@            ...            ...+                            ",
"                            @...                -...................       #...............     *...            ...+     -...................      ...@             ...@           #...    $...             ...       #...............       ...@           *...            ...+                            ",
"                            @...                ,...................      ......#,     ;...     '...            ...+     ,...................      ...@             ...@           *...    @...             ...      ......#,     ;...       ...@           '...            ...+                            ",
"                            @...                $...                     ....+         ;...     @...            ...+     $...                      ...@             ...@           >...    $...             ...     ....+         ;...       ...@           @...            ...+                            ",
"                            @...                @...                     ....          ;...     @...            ...+     @...                      ...@             ...@           +...    @...             ...     ....          ;...       ...@           @...            ...+                            ",
"                            @...                 ...                    #...           ;...      ...            ...+      ...                      ...@             ...@           ...@     ...            +...    #...           ;...       ...@            ...            ...+                            ",
"                            @...                 ...,                   ....           ;...      ...+           ...+      ...,                     ...@             ...@           ...      ....           +...    ....           ;...       ...@            ...+           ...+                            ",
"                            @...                 ....                   &...           ;...      ...+           ...+      ....                     ...@             ...@          #...      ....           ...@    &...           ;...       ...@            ...+           ...+                            ",
"                            @...                  ...>             -    ;...           ....      $...           ...+       ...>             -      ...@             ...@          ...@       ...+         -...     ;...           ....       ...@            $...           ...+                            ",
"                            @...                  @....          >.#     ....        +.....       ....        $....+       @....          >.#      ...@             ...#         ....        ....        +...@      ....        +.....       ...@             ....        $....+                            ",
"                            @...                   .....#      +...#     ;...-     @-......       ,....     -......+        .....#      +...#      ...@             .....-     +....&         ....-     .....       ;...-     @-......       ...@             ,....     -......+                            ",
"                            @.................+     ...............#      ............@+...        #..........-&...+         ...............#      ...@             ...............;           .............         ............@+...       ...@              #..........-&...+                            ",
"                            @.................+      +............-        .........$  ;...         ;.........  ...+          +............-       ...@             ...*@.........              ...........           .........$  ;...       ...@               ;.........  ...+                            ",
"                            @.................+         '.%...#%             .....-    ;...           ....#-    ...+             '.%...#%          ...@             ...   $...-.                  >;..%.@               .....-    ;...       ...@                 ....#-    ...+                            ",
"                                                                                                                                                                                                                                                                                                            ",
"                                                                                                                                                                                                                                                                                                            ",
"                                                                                                                                                                                                                                                                                                            ",
"                                                                                                                                                                                                                                                                                                            ",
"                                                                                                                                                                                                                                                                                                            ",
"                                                                                                                                                                                                                                                                                                            ",
"                                                                                                                                                                                                                                                                                                            ",
"                                                                                                                                                                                                                                                                                                            ",
"                                                                                                                                                                                                                                                                                                            "};
