/* XPM */
static const char * txt_play_selected_xpm[] = {
"300 50 17 1",
" 	c None",
".	c #EED810",
"+	c #EED80F",
"@	c #EDD710",
"#	c #EED711",
"$	c #EFD710",
"%	c #EDD810",
"&	c #EED910",
"*	c #EFD810",
"=	c #EFD910",
"-	c #EDD910",
";	c #EED70F",
">	c #EED90F",
",	c #EED811",
"'	c #EED710",
")	c #EED911",
"!	c #EFD811",
"                                                                                                                                                                                                                                                                                                            ",
"                                                                                                                                                                                                                                                                                                            ",
"                                                                                                                                                                                                                                                                                                            ",
"                                                                                                                                                                                                                                                                                                            ",
"                                                                                                                                                                                                                                                                                                            ",
"                                                                                                                                                                                                                                                                                                            ",
"                                                                                                                                                                                                                                                                                                            ",
"                                                                                                                                                                                                                                                                                                            ",
"                                                                                                                                                                                                                                                                                                            ",
"                                                                                                                                                                                                                                                                                                            ",
"                                                                                                                                      ...                                                                                                                                                                   ",
"                                                                                                                                      ...                                                                                                                                                                   ",
"                                                                                                              ........+.+@            ...                                                                                                                                                                   ",
"                                                                                                              ..............+         ...                                                                                                                                                                   ",
"                                                                                                              ................        ...                                                                                                                                                                   ",
"                                                                                                              ...#       $.....       ...                                                                                                                                                                   ",
"                                                                                                              ...#         ....%      ...                                                                                                                                                                   ",
"                                                                                                              ...#          +...      ...                                                                                                                                                                   ",
"                                                                                                              ...#           ...&     ...          %@.....%&                                                                                                                                                ",
"                                                                                                              ...#           ....     ...        .............+       *...             &...                                                                                                                 ",
"                                                                                                              ...#           ...=     ...        ...............       ...%            ...+                                                                                                                 ",
"                                                                                                              ...#           ....     ...        ....       ....$      ....            ...                                                                                                                  ",
"                                                                                                              ...#           ....     ...        +           =...       ...-          ....                                                                                                                  ",
"                                                                                                              ...#          ;...      ...                     ...       %...          ...&                                                                                                                  ",
"                                                                                                              ...#          ....      ...                     ...       >...         ,...                                                                                                                   ",
"                                                                                                              ...#         ....&      ...                     ...,       ...&        ...,                                                                                                                   ",
"                                                                                                              ...#       +....#       ...               +@.,%....%       ....       =...                                                                                                                    ",
"                                                                                                              ...............+        ...           .............%        ....      ....                                                                                                                    ",
"                                                                                                              .............+          ...         =..............%        ,...      ...                                                                                                                     ",
"                                                                                                              ..........''            ...        ......>      ...%         ...>    '...                                                                                                                     ",
"                                                                                                              ...#                    ...       ....%         ...%         ...%    ...)                                                                                                                     ",
"                                                                                                              ...#                    ...      +...,          ...%         )...   +...                                                                                                                      ",
"                                                                                                              ...#                    ...      &...           ...%          ....  ....                                                                                                                      ",
"                                                                                                              ...#                    ...      ....           ...%          ....  ...                                                                                                                       ",
"                                                                                                              ...#                    ...      ....           ...%           ...,+...                                                                                                                       ",
"                                                                                                              ...#                    ...      ....           ...%           =......                                                                                                                        ",
"                                                                                                              ...#                    ...      $...,        !....%           %......                                                                                                                        ",
"                                                                                                              ...#                    ...       .....     -+.....%            .....'                                                                                                                        ",
"                                                                                                              ...#                    ...        ............ ...%            -....                                                                                                                         ",
"                                                                                                              ...#                    ...         .........>  ...%             ...>                                                                                                                         ",
"                                                                                                              ...#                    ...          ,.....+    ...%             ...                                                                                                                          ",
"                                                                                                                                                                              '..=                                                                                                                          ",
"                                                                                                                                                                              ...@                                                                                                                          ",
"                                                                                                                                                                             $...                                                                                                                           ",
"                                                                                                                                                                             ...,                                                                                                                           ",
"                                                                                                                                                                            %...                                                                                                                            ",
"                                                                                                                                                                            ....                                                                                                                            ",
"                                                                                                                                                                           %...                                                                                                                             ",
"                                                                                                                                                                           ....                                                                                                                             ",
"                                                                                                                                                                                                                                                                                                            "};
