/* XPM */
static const char * score_t_xpm[] = {
"200 75 12 1",
" 	c None",
".	c #FF0000",
"+	c #08FF00",
"@	c #07FF00",
"#	c #09FF00",
"$	c #002EFF",
"%	c #002FFF",
"&	c #FFE800",
"*	c #E000FF",
"=	c #FFE700",
"-	c #FFE900",
";	c #002DFF",
"                                                                                                                                                                                                        ",
"                                                                                                                                                                                                        ",
"                                                                                                                                                                                                        ",
"                                                                                                                                                                                                        ",
"                                                                                                                                                                                                        ",
"                                                                                                                                                                                                        ",
"                                                                                                                                                                                                        ",
"                                                                                                                                                                                                        ",
"                                                                                                                                                                                                        ",
"                                                                                                                                                                                                        ",
"                                                                                                                                                                                                        ",
"                                                                                                                                                                                                        ",
"                                                                                                                                                                                                        ",
"                                                                                                                                                                                                        ",
"                                                                                                                                                                                                        ",
"                                                                                                                                                                                                        ",
"                                                                                                                                                                                                        ",
"               ...........                            +@@++++#+++                            $$$$$$$$$%                                                                                                 ",
"           ...................                     +++++++++++++++++#                     $$$$$$$$$$$$$$$$$                  &&&&&&&&&&&&&&&&&&&&&&&&                  *****************************    ",
"         ........................                +++++++++++++++++++++++                $$$$$$$$$$$$$$$$$$$$$                &&&&&&&&&&&&&&&&&&&&&&&&&&=               *****************************    ",
"        ..........................             ++++++++++++++++++++++++++             $$$$$$$$$$$$$$$$$$$$$$$$$              &&&&&&&&&&&&&&&&&&&&&&&&&&&&-             *****************************    ",
"      ............................            @+++++++++++++++++++++++++++           $$$$$$$$$$$$$$$$$$$$$$$$$$$             &&&&&&&&&&&&&&&&&&&&&&&&&&&&&&            *****************************    ",
"     .............................           +++++++++++++++++++++++++++++          $$$$$$$$$$$$$$$$$$$$$$$$$$$$$            &&&&&&&&&&&&&&&&&&&&&&&&&&&&&&&           *****************************    ",
"     .............................          ++++++++++++++++++++++++++++++         $$$$$$$$$$$$$$$$$$$$$$$$$$$$$$$           &&&&&&&&&&&&&&&&&&&&&&&&&&&&&&&           *****************************    ",
"    ..............................         +++++++++++++++++++++++++++++++        $$$$$$$$$$$$$$$$$$$$$$$$$$$$$$$$$          &&&&&&&&&&&&&&&&&&&&&&&&&&&&&&&&          *****************************    ",
"   ..............        .........         +++++++++++++@+      @+++++++++       $$$$$$$$$$$$$$      $$$$$$$$$$$$$$          &&&&&&&&&&&&&&&&&&&&&&&&&&&&&&&&&         *****************************    ",
"   ............             ......        ++++++++++++++           +++++++       $$$$$$$$$$$$          $$$$$$$$$$$$$         &&&&&&&&&&&        =&&&&&&&&&&&&&         ***********                      ",
"   ...........                 ...       +++++++++++++              ++++++      $$$$$$$$$$$$            $$$$$$$$$$$$         &&&&&&&&&&&          &&&&&&&&&&&&         ***********                      ",
"  ...........                   ..       ++++++++++++                 ++++      $$$$$$$$$$$$             $$$$$$$$$$$$        &&&&&&&&&&&           &&&&&&&&&&&         ***********                      ",
"  ...........                           ++++++++++++                   @++     $$$$$$$$$$$$               $$$$$$$$$$$        &&&&&&&&&&&           &&&&&&&&&&&         ***********                      ",
"  ...........                           ++++++++++++                    ++     $$$$$$$$$$$                $$$$$$$$$$$%       &&&&&&&&&&&           &&&&&&&&&&&         ***********                      ",
"  ............                          +++++++++++                            $$$$$$$$$$;                 $$$$$$$$$$$       &&&&&&&&&&&           &&&&&&&&&&&         ***********                      ",
"  ..............                        +++++++++++                            $$$$$$$$$$$                 $$$$$$$$$$$       &&&&&&&&&&&           &&&&&&&&&&&         ***********                      ",
"   ................                    +++++++++++@                           ;$$$$$$$$$$                  %$$$$$$$$$$       &&&&&&&&&&&           &&&&&&&&&&=         ***************************      ",
"   .....................               +++++++++++                            $$$$$$$$$$$                  ;$$$$$$$$$$       &&&&&&&&&&&          &&&&&&&&&&&=         ***************************      ",
"   ........................            +++++++++++                            $$$$$$$$$$$                   $$$$$$$$$$$      &&&&&&&&&&&         -&&&&&&&&&&&          ***************************      ",
"    .........................          +++++++++++                            $$$$$$$$$$$                   $$$$$$$$$$$      &&&&&&&&&&&        &&&&&&&&&&&&-          ***************************      ",
"    ...........................        +++++++++++                            $$$$$$$$$$$                   $$$$$$$$$$$      &&&&&&&&&&&&&&&&&&&&&&&&&&&&&&&           ***************************      ",
"     ...........................       +++++++++++                            $$$$$$$$$$$                   $$$$$$$$$$;      &&&&&&&&&&&&&&&&&&&&&&&&&&&&&&            ***************************      ",
"      ...........................      +++++++++++                            $$$$$$$$$$$                   $$$$$$$$$$;      &&&&&&&&&&&&&&&&&&&&&&&&&&&&&             ***************************      ",
"        ..........................     +++++++++++                            $$$$$$$$$$$                   $$$$$$$$$$$      &&&&&&&&&&&&&&&&&&&&&&&&&&&&              ***************************      ",
"         ..........................    +++++++++++                            $$$$$$$$$$$                   $$$$$$$$$$$      &&&&&&&&&&&&&&&&&&&&&&&&&&&               ***********                      ",
"            .......................    +++++++++++                            $$$$$$$$$$$                   $$$$$$$$$$;      &&&&&&&&&&&&&&&&&&&&&&&&&                 ***********                      ",
"               ....................    #++++++++++                            $$$$$$$$$$$                  $$$$$$$$$$$       &&&&&&&&&&&&&&&&&&&&&&&&&-                ***********                      ",
"                    ...............    +++++++++++                            ;$$$$$$$$$$                  %$$$$$$$$$$       &&&&&&&&&&&&&&&&&&&&&&&&&&&               ***********                      ",
"                       .............    ++++++++++#                            $$$$$$$$$$%                 $$$$$$$$$$$       &&&&&&&&&&&    &&&&&&&&&&&&&              ***********                      ",
"                        ............    +++++++++++                            $$$$$$$$$$$                 $$$$$$$$$$$       &&&&&&&&&&&     &&&&&&&&&&&&              ***********                      ",
"                         ...........    #+++++++++++                    ++     $$$$$$$$$$$                $$$$$$$$$$$$       &&&&&&&&&&&      &&&&&&&&&&&&             ***********                      ",
"  ..                     ...........    ++++++++++++                   +++     $$$$$$$$$$$$               $$$$$$$$$$$        &&&&&&&&&&&      &&&&&&&&&&&&&            ***********                      ",
"  ...                    ..........      ++++++++++++                 @+++      $$$$$$$$$$$$             %$$$$$$$$$$$        &&&&&&&&&&&       &&&&&&&&&&&&=           ***********                      ",
"  .....                 ...........      @++++++++++++               +++++      $$$$$$$$$$$$            $$$$$$$$$$$$         &&&&&&&&&&&        &&&&&&&&&&&&&          ***********                      ",
"  .......              ............       ++++++++++++++           +++++++       $$$$$$$$$$$$;         %$$$$$$$$$$$$         &&&&&&&&&&&         &&&&&&&&&&&&          ***********                      ",
"  ...........        ..............       @+++++++++++++++      ++++++++++       ;$$$$$$$$$$$$$%     ;$$$$$$$$$$$$$          &&&&&&&&&&&          &&&&&&&&&&&&         *****************************    ",
"  ................................         +++++++++++++++++++++++++++++++        $$$$$$$$$$$$$$$$$$$$$$$$$$$$$$$$%          &&&&&&&&&&&          &&&&&&&&&&&&&        *****************************    ",
"  ...............................           ++++++++++++++++++++++++++++++         $$$$$$$$$$$$$$$$$$$$$$$$$$$$$$$           &&&&&&&&&&&           &&&&&&&&&&&&&       *****************************    ",
"  ...............................            +++++++++++++++++++++++++++++          $$$$$$$$$$$$$$$$$$$$$$$$$$$$$            &&&&&&&&&&&            &&&&&&&&&&&&&      *****************************    ",
"  ..............................              ++++++++++++++++++++++++++++           $$$$$$$$$$$$$$$$$$$$$$$$$$$             &&&&&&&&&&&             &&&&&&&&&&&&&     *****************************    ",
"  ............................                 ++++++++++++++++++++++++++             $$$$$$$$$$$$$$$$$$$$$$$$$              &&&&&&&&&&&             &&&&&&&&&&&&&     *****************************    ",
"    .........................                    ++++++++++++++++++++++                 $$$$$$$$$$$$$$$$$$$$$                &&&&&&&&&&&              &&&&&&&&&&&&&    *****************************    ",
"       ...................                         +++++++++++++++++@                     $$$$$$$$$$$$$$$;$                  &&&&&&&&&&&               &&&&&&&&&&&&&   *****************************    ",
"           ............                               +##++++++@+                            $$$$$$$$$$                                                                                                 ",
"                                                                                                                                                                                                        ",
"                                                                                                                                                                                                        ",
"                                                                                                                                                                                                        ",
"                                                                                                                                                                                                        ",
"                                                                                                                                                                                                        ",
"                                                                                                                                                                                                        ",
"                                                                                                                                                                                                        ",
"                                                                                                                                                                                                        ",
"                                                                                                                                                                                                        ",
"                                                                                                                                                                                                        ",
"                                                                                                                                                                                                        ",
"                                                                                                                                                                                                        ",
"                                                                                                                                                                                                        ",
"                                                                                                                                                                                                        "};
