/* XPM */
static const char * tetris_t_xpm[] = {
"61 41 12 1",
" 	c None",
".	c #000001",
"+	c #130022",
"@	c #130023",
"#	c #010002",
"$	c #A700FB",
"%	c #A900FD",
"&	c #1E0033",
"*	c #AA00FF",
"=	c #1F0033",
"-	c #140023",
";	c #010003",
".+@@@@@@@@@@@@@@@@@+#+@@@@@@@@@@@@@@@@@+#+@@@@@@@@@@@@@@@@@+.",
"+$%%%%%%%%%%%%%%%%%$&$%%%%%%%%%%%%%%%%%$&$%%%%%%%%%%%%%%%%%$+",
"@%*****************%=%*****************%=%*****************%@",
"@%*****************%=%*****************%=%*****************%@",
"@%*****************%=%*****************%=%*****************%@",
"@%*****************%=%*****************%=%*****************%@",
"@%*****************%=%*****************%=%*****************%@",
"@%*****************%=%*****************%=%*****************%@",
"@%*****************%=%*****************%=%*****************%@",
"@%*****************%=%*****************%=%*****************%@",
"@%*****************%=%*****************%=%*****************%@",
"@%*****************%=%*****************%=%*****************%@",
"@%*****************%=%*****************%=%*****************%@",
"@%*****************%=%*****************%=%*****************%@",
"@%*****************%=%*****************%=%*****************%@",
"@%*****************%=%*****************%=%*****************%@",
"@%*****************%=%*****************%=%*****************%@",
"@%*****************%=%*****************%=%*****************%@",
"@%*****************%=%*****************%=%*****************%@",
"+$%%%%%%%%%%%%%%%%%$&$%%%%%%%%%%%%%%%%%$&$%%%%%%%%%%%%%%%%%$+",
".@-----------------@;&=================&;@-----------------@.",
"                    @$%%%%%%%%%%%%%%%%%$@                    ",
"                    -%*****************%-                    ",
"                    -%*****************%-                    ",
"                    -%*****************%-                    ",
"                    -%*****************%-                    ",
"                    -%*****************%-                    ",
"                    -%*****************%-                    ",
"                    -%*****************%-                    ",
"                    -%*****************%-                    ",
"                    -%*****************%-                    ",
"                    -%*****************%-                    ",
"                    -%*****************%-                    ",
"                    -%*****************%-                    ",
"                    -%*****************%-                    ",
"                    -%*****************%-                    ",
"                    -%*****************%-                    ",
"                    -%*****************%-                    ",
"                    -%*****************%-                    ",
"                    @$%%%%%%%%%%%%%%%%%$@                    ",
"                    .+@@@@@@@@@@@@@@@@@+.                    "};
